<?xml version="1.0" encoding="utf-8"?>
<!-- Generator: Adobe Illustrator 27.5.0, SVG Export Plug-In . SVG Version: 6.00 Build 0)  -->
<svg version="1.1" xmlns="http://www.w3.org/2000/svg" xmlns:xlink="http://www.w3.org/1999/xlink" x="0px" y="0px"
	 viewBox="2399.047 -1875.171 4554.651 3588.58" style="enable-background:new 2399.047 -1875.171 4554.651 3588.58;"
	 xml:space="preserve">
<g id="Layer_1">
</g>
<g id="Layer_2">
</g>
<g id="Dimensions">
	<rect x="2399.047" y="-1875.171" style="fill:#FFFFFF;" width="4554.651" height="3588.58"/>
	<g id="Layer_x5F_1_00000156552430107218585080000014476693118957797027_">
		<g id="_105553248996480">
			<path style="fill-rule:evenodd;clip-rule:evenodd;fill:#FF0000;" d="M4200.152,173.065c13.651,20.9,8.454,27.614,31.4,0.475
				c26.586-31.445,71.22-106.26,122.886-204.348c194.066-368.441,262.248-347.034,733.25-63.981
				c539.081,323.983,590.673-255.597,316.481-681.336c145.249,205.833,289.36,484.173,308.376,773.918
				c23.847,363.474-242.711,520.571-565.056,327.94C4969.646,219.456,4803.43-8.491,4683.098-68.709
				c-83.925-46.024-177.748,15.535-234.57,77.618l0.041-0.367l-1.086,1.512c-70.899,77.953-119.087,173.438-198.268,213.177
				C4209.031,243.398,4179.361,210.708,4200.152,173.065L4200.152,173.065z"/>
			<path style="fill-rule:evenodd;clip-rule:evenodd;fill:#1F3CCC;" d="M4372.666-187.194c-13.176-15.122-8.277-21.995-29.484,5.669
				c-23.304,30.394-59.643,95.032-98.002,171.803c-218.501,437.37-332.853-232.424-395.924,37.453
				c-0.906,3.871-1.748,7.72-2.558,11.55c-1.395-21.321-2.105-42.47-1.965-63.252c0.752-112.268,38.997-180.976,95.797-136.324
				c41.37,32.522,88.308,136.252,131.249,169.661c35.049,29.729,81.335-5.723,113.282-47.029l-0.027,0.254l0.643-1.05
				c44.675-58.122,78.624-134.282,141.717-180.451c36.385-26.618,65.778-5.936,45.263,31.721L4372.666-187.194z"/>
			<path style="fill-rule:evenodd;clip-rule:evenodd;fill:#1F3CCC;" d="M4042.489-176.4
				c-0.616,67.467,31.472,119.359,73.797,115.456c44.878-4.143,83.545-68.694,83.857-143.627
				c0.308-74.576-37.566-124.697-82.124-112.921C4075.976-306.381,4043.1-243.573,4042.489-176.4z"/>
			<path style="fill-rule:evenodd;clip-rule:evenodd;fill:#FF0000;" d="M4460.875,156.512
				c0.367,89.458,56.564,169.734,130.388,179.487c79.828,10.55,148.391-64.302,147.064-167.379
				c-1.313-102.412-71.071-181.927-149.889-178.459C4515.483-6.63,4460.508,67.552,4460.875,156.512L4460.875,156.512z"/>
		</g>
	</g>
</g>
<g id="Layer_4">
</g>
</svg>
